<svg width="1600" height="1200" viewBox="0 0 1600 1200" fill="none" xmlns="http://www.w3.org/2000/svg">
  <defs>
    <linearGradient id="bg" x1="160" y1="80" x2="1380" y2="1120" gradientUnits="userSpaceOnUse">
      <stop stop-color="#0E1730"/>
      <stop offset="1" stop-color="#070C18"/>
    </linearGradient>
    <linearGradient id="gold" x1="0" y1="0" x2="1" y2="1">
      <stop stop-color="#F4D597"/>
      <stop offset="1" stop-color="#D9AE58"/>
    </linearGradient>
    <filter id="shadow" x="0" y="0" width="1600" height="1200" filterUnits="userSpaceOnUse" color-interpolation-filters="sRGB">
      <feDropShadow dx="0" dy="30" stdDeviation="40" flood-color="#000000" flood-opacity="0.35"/>
    </filter>
  </defs>
  <rect width="1600" height="1200" rx="48" fill="url(#bg)"/>
  <circle cx="1280" cy="220" r="220" fill="#1E315A" opacity="0.35"/>
  <circle cx="320" cy="160" r="180" fill="#3A2D13" opacity="0.25"/>

  <g filter="url(#shadow)">
    <rect x="180" y="130" width="520" height="760" rx="36" fill="#F6F8FF"/>
    <rect x="210" y="200" width="460" height="48" rx="16" fill="#E2E8F8"/>
    <rect x="210" y="280" width="330" height="26" rx="13" fill="#CBD5EC"/>
    <rect x="210" y="324" width="290" height="26" rx="13" fill="#CBD5EC"/>
    <rect x="210" y="386" width="460" height="118" rx="24" fill="#FFFFFF"/>
    <rect x="240" y="422" width="220" height="18" rx="9" fill="#C9D3EA"/>
    <rect x="240" y="454" width="170" height="18" rx="9" fill="#C9D3EA"/>
    <rect x="210" y="534" width="460" height="118" rx="24" fill="#D9F6EC"/>
    <rect x="240" y="570" width="220" height="18" rx="9" fill="#83B8AA"/>
    <rect x="240" y="602" width="250" height="18" rx="9" fill="#83B8AA"/>
    <rect x="210" y="692" width="460" height="118" rx="24" fill="#FFFFFF"/>
    <rect x="240" y="728" width="200" height="18" rx="9" fill="#C9D3EA"/>
    <rect x="240" y="760" width="280" height="18" rx="9" fill="#C9D3EA"/>

    <rect x="760" y="180" width="660" height="840" rx="42" fill="#101828"/>
    <rect x="760" y="180" width="660" height="840" rx="42" stroke="#27324C" stroke-width="4"/>
    <text x="820" y="290" fill="#F5F7FF" font-family="Inter, Arial, sans-serif" font-size="54" font-weight="800">Booked Detailer</text>
    <text x="820" y="345" fill="#E5C07B" font-family="Inter, Arial, sans-serif" font-size="26" font-weight="700">The Car Detailing WhatsApp Booking Pack</text>
    <text x="820" y="430" fill="#B7C2DD" font-family="Inter, Arial, sans-serif" font-size="28">Reply faster. Quote clearer. Book more cars.</text>

    <rect x="820" y="500" width="540" height="86" rx="24" fill="#151F33"/>
    <text x="860" y="553" fill="#F5F7FF" font-family="Inter, Arial, sans-serif" font-size="28" font-weight="700">10 copy-paste sales scripts</text>

    <rect x="820" y="616" width="540" height="86" rx="24" fill="#151F33"/>
    <text x="860" y="669" fill="#F5F7FF" font-family="Inter, Arial, sans-serif" font-size="28" font-weight="700">Daily booking checklist</text>

    <rect x="820" y="732" width="540" height="86" rx="24" fill="#151F33"/>
    <text x="860" y="785" fill="#F5F7FF" font-family="Inter, Arial, sans-serif" font-size="28" font-weight="700">Lead tracker template</text>

    <rect x="820" y="870" width="250" height="86" rx="22" fill="url(#gold)"/>
    <text x="875" y="925" fill="#17120A" font-family="Inter, Arial, sans-serif" font-size="30" font-weight="800">RM29</text>
  </g>
</svg>
